<svg xmlns="http://www.w3.org/2000/svg" xmlns:xlink="http://www.w3.org/1999/xlink" id="processonSvg1000" viewBox="62.666656494140625 63.0 1130.5 778.375" width="1130.5" height="778.375"><defs id="ProcessOnDefs1001"><marker id="ProcessOnMarker1007" markerUnits="userSpaceOnUse" orient="auto" markerWidth="16.23606797749979" markerHeight="10.550836550532098" viewBox="-1.0 -1.3763819204711736 16.23606797749979 10.550836550532098" refX="-1.0" refY="3.8990363547948754"><path id="ProcessOnPath1008" d="M12.0 3.8990363547948754L0.0 7.798072709589751V0.0Z" stroke="#323232" stroke-width="2.0" fill="#323232" transform="matrix(1.0,0.0,0.0,1.0,0.0,0.0)"/></marker><marker id="ProcessOnMarker1011" markerUnits="userSpaceOnUse" orient="auto" markerWidth="16.23606797749979" markerHeight="10.550836550532098" viewBox="-1.0 -1.3763819204711736 16.23606797749979 10.550836550532098" refX="-1.0" refY="3.8990363547948754"><path id="ProcessOnPath1012" d="M12.0 3.8990363547948754L0.0 7.798072709589751V0.0Z" stroke="#323232" stroke-width="2.0" fill="#323232" transform="matrix(1.0,0.0,0.0,1.0,0.0,0.0)"/></marker><pattern id="ProcessOnPattern1015" patternUnits="userSpaceOnUse" width="80.0" height="74.0" patternTransform="matrix(1.0,0.0,0.0,1.0,0.0,0.0)"><svg version="1.1" id="图层_1" xmlns:dc="http://purl.org/dc/elements/1.1/" xmlns:cc="http://creativecommons.org/ns#" xmlns:rdf="http://www.w3.org/1999/02/22-rdf-syntax-ns#" xmlns="http://www.w3.org/2000/svg" xmlns:xlink="http://www.w3.org/1999/xlink" x="0px" y="0px" width="80px" height="74px" viewBox="0 0 80 74" enable-background="new 0 0 80 74" xml:space="preserve"> <path fill="#00BCF2" d="M12.171,71.513v-2.488l4.199-0.093c8.087-0.18,11.128-1.028,12.413-3.463 c0.395-0.75,0.423-0.929,0.401-2.611c-0.013-1.182-0.123-2.208-0.317-2.98L28.57,58.7l-12.557-0.079l-12.56-0.079l-0.801-0.364 c-0.938-0.422-1.77-1.236-2.287-2.225L0,55.247V29.271V3.297l0.354-0.663c0.555-1.041,1.242-1.72,2.209-2.194L3.453,0h36.274h36.274 l1.019,0.486c1.212,0.576,2.097,1.419,2.606,2.497L80,3.768V29.32v25.553l-0.423,0.87c-0.501,1.016-1.354,1.809-2.559,2.388 l-0.865,0.411L63.25,58.584l-12.91,0.047l-0.235,0.823c-0.698,2.443-0.913,4.854-0.547,6.082c0.735,2.448,4.252,3.432,12.265,3.443 h2.789v2.51V74H38.391H12.165v-2.489L12.171,71.513z M73.881,29.271V6.2h-33.84H6.203v23.071V52.34h33.838h33.842V29.271H73.881z"/> </svg> </pattern><pattern id="ProcessOnPattern1021" patternUnits="userSpaceOnUse" width="80.0" height="74.0" patternTransform="matrix(1.0,0.0,0.0,1.0,0.0,0.0)"><svg version="1.1" id="图层_1" xmlns:dc="http://purl.org/dc/elements/1.1/" xmlns:cc="http://creativecommons.org/ns#" xmlns:rdf="http://www.w3.org/1999/02/22-rdf-syntax-ns#" xmlns="http://www.w3.org/2000/svg" xmlns:xlink="http://www.w3.org/1999/xlink" x="0px" y="0px" width="80px" height="74px" viewBox="0 0 80 74" enable-background="new 0 0 80 74" xml:space="preserve"> <path fill="#00BCF2" d="M12.171,71.513v-2.488l4.199-0.093c8.087-0.18,11.128-1.028,12.413-3.463 c0.395-0.75,0.423-0.929,0.401-2.611c-0.013-1.182-0.123-2.208-0.317-2.98L28.57,58.7l-12.557-0.079l-12.56-0.079l-0.801-0.364 c-0.938-0.422-1.77-1.236-2.287-2.225L0,55.247V29.271V3.297l0.354-0.663c0.555-1.041,1.242-1.72,2.209-2.194L3.453,0h36.274h36.274 l1.019,0.486c1.212,0.576,2.097,1.419,2.606,2.497L80,3.768V29.32v25.553l-0.423,0.87c-0.501,1.016-1.354,1.809-2.559,2.388 l-0.865,0.411L63.25,58.584l-12.91,0.047l-0.235,0.823c-0.698,2.443-0.913,4.854-0.547,6.082c0.735,2.448,4.252,3.432,12.265,3.443 h2.789v2.51V74H38.391H12.165v-2.489L12.171,71.513z M73.881,29.271V6.2h-33.84H6.203v23.071V52.34h33.838h33.842V29.271H73.881z"/> </svg> </pattern><pattern id="ProcessOnPattern1027" patternUnits="userSpaceOnUse" width="76.0" height="24.0" patternTransform="matrix(1.0,0.0,0.0,1.0,0.0,0.0)"><svg version="1.1" id="图层_1" xmlns:dc="http://purl.org/dc/elements/1.1/" xmlns:cc="http://creativecommons.org/ns#" xmlns:rdf="http://www.w3.org/1999/02/22-rdf-syntax-ns#" xmlns="http://www.w3.org/2000/svg" xmlns:xlink="http://www.w3.org/1999/xlink" x="0px" y="0px" width="76px" height="24px" viewBox="0 0 76 24" enable-background="new 0 0 76 24" xml:space="preserve"> <path fill="#00BCF2" d="M1.691,23.722c-0.731-0.334-1.349-1.041-1.564-1.788c-0.11-0.379-0.146-3.639-0.117-10.245l0.047-9.691 l0.425-0.618c0.266-0.389,0.711-0.764,1.185-1L2.423,0H38h35.573l0.787,0.394c0.514,0.256,0.922,0.603,1.185,1.001l0.399,0.607 l0.046,9.689c0.029,6.607-0.006,9.864-0.117,10.243c-0.218,0.748-0.831,1.454-1.563,1.788C73.729,23.986,72.323,24,38,24 C3.676,23.998,2.268,23.984,1.691,23.722L1.691,23.722z M7.95,20.389c1.541-1.047,1.459-3.533-0.145-4.442 c-1.992-1.137-4.312,0.581-3.882,2.873c0.116,0.634,0.86,1.54,1.497,1.832C6.085,20.955,7.307,20.827,7.95,20.389L7.95,20.389z M70.813,19.645c0.201-0.104,0.289-0.313,0.289-0.669c0-0.353-0.088-0.562-0.289-0.671c-0.188-0.1-2.998-0.155-8.098-0.155 c-8.481,0-8.354-0.012-8.354,0.827c0,0.843-0.127,0.83,8.354,0.83C67.815,19.803,70.625,19.75,70.813,19.645z M70.813,16.645 c0.176-0.096,0.288-0.311,0.287-0.56c-0.006-0.902,0.438-0.856-8.234-0.898c-8.661-0.048-8.505-0.062-8.505,0.788 c0,0.839-0.127,0.825,8.354,0.825C67.815,16.8,70.625,16.751,70.813,16.645L70.813,16.645z M70.813,13.646 c0.409-0.223,0.381-0.963-0.046-1.263c-0.283-0.203-1.293-0.233-7.965-0.233c-4.306,0-7.794,0.063-8,0.14 c-0.459,0.178-0.608,0.728-0.317,1.172l0.222,0.337h7.912C67.782,13.799,70.625,13.744,70.813,13.646L70.813,13.646z"/> </svg> </pattern><pattern id="ProcessOnPattern1033" patternUnits="userSpaceOnUse" width="76.0" height="24.0" patternTransform="matrix(1.0,0.0,0.0,1.0,0.0,0.0)"><svg version="1.1" id="图层_1" xmlns:dc="http://purl.org/dc/elements/1.1/" xmlns:cc="http://creativecommons.org/ns#" xmlns:rdf="http://www.w3.org/1999/02/22-rdf-syntax-ns#" xmlns="http://www.w3.org/2000/svg" xmlns:xlink="http://www.w3.org/1999/xlink" x="0px" y="0px" width="76px" height="24px" viewBox="0 0 76 24" enable-background="new 0 0 76 24" xml:space="preserve"> <path fill="#00BCF2" d="M1.691,23.722c-0.731-0.334-1.349-1.041-1.564-1.788c-0.11-0.379-0.146-3.639-0.117-10.245l0.047-9.691 l0.425-0.618c0.266-0.389,0.711-0.764,1.185-1L2.423,0H38h35.573l0.787,0.394c0.514,0.256,0.922,0.603,1.185,1.001l0.399,0.607 l0.046,9.689c0.029,6.607-0.006,9.864-0.117,10.243c-0.218,0.748-0.831,1.454-1.563,1.788C73.729,23.986,72.323,24,38,24 C3.676,23.998,2.268,23.984,1.691,23.722L1.691,23.722z M7.95,20.389c1.541-1.047,1.459-3.533-0.145-4.442 c-1.992-1.137-4.312,0.581-3.882,2.873c0.116,0.634,0.86,1.54,1.497,1.832C6.085,20.955,7.307,20.827,7.95,20.389L7.95,20.389z M70.813,19.645c0.201-0.104,0.289-0.313,0.289-0.669c0-0.353-0.088-0.562-0.289-0.671c-0.188-0.1-2.998-0.155-8.098-0.155 c-8.481,0-8.354-0.012-8.354,0.827c0,0.843-0.127,0.83,8.354,0.83C67.815,19.803,70.625,19.75,70.813,19.645z M70.813,16.645 c0.176-0.096,0.288-0.311,0.287-0.56c-0.006-0.902,0.438-0.856-8.234-0.898c-8.661-0.048-8.505-0.062-8.505,0.788 c0,0.839-0.127,0.825,8.354,0.825C67.815,16.8,70.625,16.751,70.813,16.645L70.813,16.645z M70.813,13.646 c0.409-0.223,0.381-0.963-0.046-1.263c-0.283-0.203-1.293-0.233-7.965-0.233c-4.306,0-7.794,0.063-8,0.14 c-0.459,0.178-0.608,0.728-0.317,1.172l0.222,0.337h7.912C67.782,13.799,70.625,13.744,70.813,13.646L70.813,13.646z"/> </svg> </pattern><pattern id="ProcessOnPattern1039" patternUnits="userSpaceOnUse" width="76.0" height="24.0" patternTransform="matrix(1.0,0.0,0.0,1.0,0.0,0.0)"><svg version="1.1" id="图层_1" xmlns:dc="http://purl.org/dc/elements/1.1/" xmlns:cc="http://creativecommons.org/ns#" xmlns:rdf="http://www.w3.org/1999/02/22-rdf-syntax-ns#" xmlns="http://www.w3.org/2000/svg" xmlns:xlink="http://www.w3.org/1999/xlink" x="0px" y="0px" width="76px" height="24px" viewBox="0 0 76 24" enable-background="new 0 0 76 24" xml:space="preserve"> <path fill="#00BCF2" d="M1.691,23.722c-0.731-0.334-1.349-1.041-1.564-1.788c-0.11-0.379-0.146-3.639-0.117-10.245l0.047-9.691 l0.425-0.618c0.266-0.389,0.711-0.764,1.185-1L2.423,0H38h35.573l0.787,0.394c0.514,0.256,0.922,0.603,1.185,1.001l0.399,0.607 l0.046,9.689c0.029,6.607-0.006,9.864-0.117,10.243c-0.218,0.748-0.831,1.454-1.563,1.788C73.729,23.986,72.323,24,38,24 C3.676,23.998,2.268,23.984,1.691,23.722L1.691,23.722z M7.95,20.389c1.541-1.047,1.459-3.533-0.145-4.442 c-1.992-1.137-4.312,0.581-3.882,2.873c0.116,0.634,0.86,1.54,1.497,1.832C6.085,20.955,7.307,20.827,7.95,20.389L7.95,20.389z M70.813,19.645c0.201-0.104,0.289-0.313,0.289-0.669c0-0.353-0.088-0.562-0.289-0.671c-0.188-0.1-2.998-0.155-8.098-0.155 c-8.481,0-8.354-0.012-8.354,0.827c0,0.843-0.127,0.83,8.354,0.83C67.815,19.803,70.625,19.75,70.813,19.645z M70.813,16.645 c0.176-0.096,0.288-0.311,0.287-0.56c-0.006-0.902,0.438-0.856-8.234-0.898c-8.661-0.048-8.505-0.062-8.505,0.788 c0,0.839-0.127,0.825,8.354,0.825C67.815,16.8,70.625,16.751,70.813,16.645L70.813,16.645z M70.813,13.646 c0.409-0.223,0.381-0.963-0.046-1.263c-0.283-0.203-1.293-0.233-7.965-0.233c-4.306,0-7.794,0.063-8,0.14 c-0.459,0.178-0.608,0.728-0.317,1.172l0.222,0.337h7.912C67.782,13.799,70.625,13.744,70.813,13.646L70.813,13.646z"/> </svg> </pattern><pattern id="ProcessOnPattern1045" patternUnits="userSpaceOnUse" width="76.0" height="24.0" patternTransform="matrix(1.0,0.0,0.0,1.0,0.0,0.0)"><svg version="1.1" id="图层_1" xmlns:dc="http://purl.org/dc/elements/1.1/" xmlns:cc="http://creativecommons.org/ns#" xmlns:rdf="http://www.w3.org/1999/02/22-rdf-syntax-ns#" xmlns="http://www.w3.org/2000/svg" xmlns:xlink="http://www.w3.org/1999/xlink" x="0px" y="0px" width="76px" height="24px" viewBox="0 0 76 24" enable-background="new 0 0 76 24" xml:space="preserve"> <path fill="#00BCF2" d="M1.691,23.722c-0.731-0.334-1.349-1.041-1.564-1.788c-0.11-0.379-0.146-3.639-0.117-10.245l0.047-9.691 l0.425-0.618c0.266-0.389,0.711-0.764,1.185-1L2.423,0H38h35.573l0.787,0.394c0.514,0.256,0.922,0.603,1.185,1.001l0.399,0.607 l0.046,9.689c0.029,6.607-0.006,9.864-0.117,10.243c-0.218,0.748-0.831,1.454-1.563,1.788C73.729,23.986,72.323,24,38,24 C3.676,23.998,2.268,23.984,1.691,23.722L1.691,23.722z M7.95,20.389c1.541-1.047,1.459-3.533-0.145-4.442 c-1.992-1.137-4.312,0.581-3.882,2.873c0.116,0.634,0.86,1.54,1.497,1.832C6.085,20.955,7.307,20.827,7.95,20.389L7.95,20.389z M70.813,19.645c0.201-0.104,0.289-0.313,0.289-0.669c0-0.353-0.088-0.562-0.289-0.671c-0.188-0.1-2.998-0.155-8.098-0.155 c-8.481,0-8.354-0.012-8.354,0.827c0,0.843-0.127,0.83,8.354,0.83C67.815,19.803,70.625,19.75,70.813,19.645z M70.813,16.645 c0.176-0.096,0.288-0.311,0.287-0.56c-0.006-0.902,0.438-0.856-8.234-0.898c-8.661-0.048-8.505-0.062-8.505,0.788 c0,0.839-0.127,0.825,8.354,0.825C67.815,16.8,70.625,16.751,70.813,16.645L70.813,16.645z M70.813,13.646 c0.409-0.223,0.381-0.963-0.046-1.263c-0.283-0.203-1.293-0.233-7.965-0.233c-4.306,0-7.794,0.063-8,0.14 c-0.459,0.178-0.608,0.728-0.317,1.172l0.222,0.337h7.912C67.782,13.799,70.625,13.744,70.813,13.646L70.813,13.646z"/> </svg> </pattern><pattern id="ProcessOnPattern1051" patternUnits="userSpaceOnUse" width="57.0" height="76.0" patternTransform="matrix(1.0,0.0,0.0,1.0,0.0,0.0)"><svg version="1.1" id="图层_1" xmlns:dc="http://purl.org/dc/elements/1.1/" xmlns:cc="http://creativecommons.org/ns#" xmlns:rdf="http://www.w3.org/1999/02/22-rdf-syntax-ns#" xmlns="http://www.w3.org/2000/svg" xmlns:xlink="http://www.w3.org/1999/xlink" x="0px" y="0px" width="57px" height="76px" viewBox="0 0 57 76" enable-background="new 0 0 57 76" xml:space="preserve"> <path fill="#00BCF2" d="M23.979,75.952C16.857,75.438,9.82,73.649,5.504,71.25c-2.459-1.365-4.332-3.044-5.067-4.538L0,65.821 v-27.91V9.999l0.347-0.702c1.546-3.136,6.481-5.964,13.372-7.66c2.339-0.576,5.715-1.149,8.469-1.439 C25-0.099,32.456-0.053,35.262,0.276c7.454,0.875,13.8,2.834,17.71,5.469c1.507,1.017,3.056,2.642,3.579,3.762L57,10.467 l-0.038,27.827L56.925,66.12l-0.36,0.734c-0.2,0.401-0.799,1.193-1.334,1.76c-3.251,3.441-10.225,5.99-19.373,7.075 C33.992,75.911,25.893,76.089,23.979,75.952L23.979,75.952z M37.103,52.036c-0.028-0.071-1.095-1.021-2.366-2.105 c-1.273-1.088-2.371-2.026-2.438-2.09s0.168-0.283,0.523-0.491s1.032-0.785,1.51-1.285c1.391-1.458,2.047-3.258,2.047-5.617 c0-2.321-0.705-4.196-2.126-5.625c-1.429-1.442-3.068-2.061-5.46-2.061c-3.685,0-6.513,2.148-7.417,5.63 c-0.312,1.197-0.31,3.616,0.002,4.679c0.815,2.77,3.033,4.782,5.793,5.255c0.934,0.158,1.061,0.229,1.698,0.925 c0.378,0.412,1.157,1.238,1.725,1.833l1.038,1.082h2.76C35.911,52.165,37.13,52.105,37.103,52.036L37.103,52.036z M27.64,44.317 c-0.663-0.347-0.915-0.615-1.294-1.385c-0.292-0.595-0.342-0.931-0.346-2.336c-0.003-1.426,0.042-1.735,0.348-2.354 c0.5-1.016,1.188-1.496,2.254-1.573c1.483-0.106,2.34,0.619,2.787,2.367c0.55,2.144-0.055,4.421-1.373,5.177 C29.322,44.61,28.29,44.654,27.64,44.317L27.64,44.317z M15.41,48.295c2.893-0.549,4.535-2.23,4.535-4.643 c0-2.141-1.06-3.388-3.992-4.694c-1.676-0.748-2.284-1.217-2.284-1.766c0-0.455,0.576-0.952,1.247-1.078 c0.655-0.122,2.393,0.18,3.42,0.594l0.861,0.348v-1.903V33.25l-0.935-0.208c-0.576-0.127-1.79-0.204-3.174-0.2 c-1.961,0-2.346,0.047-3.084,0.34c-2.156,0.855-3.18,2.312-3.163,4.505c0.015,2.05,1.098,3.331,3.795,4.482 c1.591,0.68,2.229,1.197,2.229,1.81c0,1.298-2.167,1.457-4.461,0.328c-0.628-0.311-1.192-0.588-1.255-0.619 c-0.062-0.03-0.112,0.858-0.112,1.975c0,2.021,0.003,2.033,0.369,2.173C10.787,48.359,13.837,48.593,15.41,48.295z M48.482,46.419 v-1.718h-2.615h-2.614v-5.895v-5.896h-2.316h-2.315v7.612v7.612h4.931h4.931V46.419L48.482,46.419z M32.347,16.338 c4.602-0.318,8.052-0.921,11.087-1.935c3.024-1.01,4.811-2.233,5.21-3.566c0.152-0.513,0.143-0.708-0.071-1.271 c-0.966-2.524-6.354-4.462-14.591-5.249c-3.522-0.336-9.931-0.227-13.288,0.227c-5.126,0.692-9.286,1.977-11.135,3.439 c-3.741,2.96,0.215,6.215,9.416,7.748C22.963,16.396,28.132,16.631,32.347,16.338L32.347,16.338z"/> </svg> </pattern><pattern id="ProcessOnPattern1056" patternUnits="userSpaceOnUse" width="512.0" height="512.0" patternTransform="matrix(0.146484375,0.0,0.0,0.146484375,0.0,0.0)"><svg version="1.1" id="图层_1" xmlns="http://www.w3.org/2000/svg" xmlns:xlink="http://www.w3.org/1999/xlink" x="0px" y="0px" width="512px" height="512px" viewBox="0 0 512 512" enable-background="new 0 0 512 512" xml:space="preserve"> <g> <path fill="#33CCFF" d="M499.037,101.813c-10.847-62.461-25.838-77.337-89.152-88.42c-40.31-7.053-97.21-11.098-156.091-11.098 c-58.363,0-112.338,3.801-151.978,10.687c-62.468,10.855-77.345,25.853-88.405,89.152c-14.663,83.819-14.884,224.882-0.48,308.031 c10.817,62.461,25.815,77.329,89.152,88.42c40.409,7.069,97.431,11.121,156.434,11.121h0.009 c58.218,0,112.087-3.778,151.665-10.634c62.476-10.862,77.359-25.854,88.404-89.167 C513.266,326.071,513.464,184.977,499.037,101.813 M483.24,407.222c-9.918,56.764-19.82,66.772-75.715,76.492 c-38.727,6.703-91.636,10.39-149,10.39h-0.009c-58.148,0-114.181-3.961-153.745-10.877c-56.786-9.947-66.795-19.865-76.469-75.715 c-14.153-81.702-13.939-220.319,0.48-302.699c9.918-56.748,19.82-66.757,75.7-76.461c38.794-6.741,91.817-10.458,149.312-10.458 c58.012,0,113.938,3.961,153.41,10.868c56.748,9.933,66.757,19.843,76.477,75.715C497.85,186.186,497.652,324.819,483.24,407.222" /> <path fill="#33CCFF" d="M296.636,308.251c-4.975,0-9.016,3.789-9.016,8.464c0,4.674,4.041,8.479,9.016,8.479 c4.946,0,8.995-3.805,8.995-8.479C305.63,312.04,301.582,308.251,296.636,308.251"/> <path fill="#33CCFF" d="M352.138,191.353c-3.479,0-7.052,0.163-10.725,0.502c-0.912-3.436-18.238-68.704-89.205-68.709 c-5.058,0-10.376,0.348-15.982,1.095c-84.281,11.245-74.062,83.47-73.525,87.272c-0.084-0.006-1.69-0.127-4.598-0.127 c-16.457,0-71.994,4.086-82.159,58.506c-12.844,68.831,58.656,94.734,84.972,94.734H342.02c2.984-0.011,59.666-0.232,86.553-53.049 C454.233,261.212,423.967,191.353,352.138,191.353 M310.539,333.189H189.21c-6.875,0-10.277-3.955-10.277-10.42v-12.988 c0-6.465,3.402-9.525,10.277-9.525h121.328c6.898,0,13.838,3.062,13.838,9.525l0.001,12.988 C324.377,329.234,317.437,333.189,310.539,333.189 M310.539,292.796H189.21c-6.875,0-10.277-3.955-10.277-10.419v-12.989 c0-6.465,3.402-9.524,10.277-9.524h121.328c6.898,0,13.838,3.061,13.838,9.524l0.001,12.989 C324.377,288.841,317.437,292.796,310.539,292.796 M310.539,252.357H189.21c-6.875,0-10.277-1.741-10.277-8.209v-12.7 c0-6.466,3.402-11.746,10.277-11.746h121.328c6.898,0,13.838,5.28,13.838,11.746l0.001,12.7 C324.377,250.616,317.437,252.357,310.539,252.357"/> <path fill="#33CCFF" d="M296.636,267.403c-4.975,0-9.016,3.804-9.016,8.479s4.041,8.476,9.016,8.476 c4.946,0,8.995-3.801,8.995-8.476S301.582,267.403,296.636,267.403"/> <path fill="#33CCFF" d="M296.636,229.465c-4.975,0-9.016,3.525-9.016,8.196c0,4.675,4.041,8.471,9.016,8.471 c4.946,0,8.995-3.796,8.995-8.471C305.63,232.99,301.582,229.465,296.636,229.465"/> </g> </svg> </pattern><marker id="ProcessOnMarker1061" markerUnits="userSpaceOnUse" orient="auto" markerWidth="16.23606797749979" markerHeight="10.550836550532098" viewBox="-1.0 -1.3763819204711736 16.23606797749979 10.550836550532098" refX="-1.0" refY="3.8990363547948754"><path id="ProcessOnPath1062" d="M12.0 3.8990363547948754L0.0 7.798072709589751V0.0Z" stroke="#323232" stroke-width="2.0" fill="#323232" transform="matrix(1.0,0.0,0.0,1.0,0.0,0.0)"/></marker><marker id="ProcessOnMarker1065" markerUnits="userSpaceOnUse" orient="auto" markerWidth="16.23606797749979" markerHeight="10.550836550532098" viewBox="-1.0 -1.3763819204711736 16.23606797749979 10.550836550532098" refX="-1.0" refY="3.8990363547948754"><path id="ProcessOnPath1066" d="M12.0 3.8990363547948754L0.0 7.798072709589751V0.0Z" stroke="#323232" stroke-width="2.0" fill="#323232" transform="matrix(1.0,0.0,0.0,1.0,0.0,0.0)"/></marker><marker id="ProcessOnMarker1069" markerUnits="userSpaceOnUse" orient="auto" markerWidth="16.23606797749979" markerHeight="10.550836550532098" viewBox="-1.0 -1.3763819204711736 16.23606797749979 10.550836550532098" refX="-1.0" refY="3.8990363547948754"><path id="ProcessOnPath1070" d="M12.0 3.8990363547948754L0.0 7.798072709589751V0.0Z" stroke="#323232" stroke-width="2.0" fill="#323232" transform="matrix(1.0,0.0,0.0,1.0,0.0,0.0)"/></marker><marker id="ProcessOnMarker1073" markerUnits="userSpaceOnUse" orient="auto" markerWidth="16.23606797749979" markerHeight="10.550836550532098" viewBox="-1.0 -1.3763819204711736 16.23606797749979 10.550836550532098" refX="-1.0" refY="3.8990363547948754"><path id="ProcessOnPath1074" d="M12.0 3.8990363547948754L0.0 7.798072709589751V0.0Z" stroke="#323232" stroke-width="2.0" fill="#323232" transform="matrix(1.0,0.0,0.0,1.0,0.0,0.0)"/></marker><pattern id="ProcessOnPattern1077" patternUnits="userSpaceOnUse" width="76.0" height="47.0" patternTransform="matrix(1.0,0.0,0.0,1.0,0.0,0.0)"><svg version="1.1" id="图层_1" xmlns:dc="http://purl.org/dc/elements/1.1/" xmlns:cc="http://creativecommons.org/ns#" xmlns:rdf="http://www.w3.org/1999/02/22-rdf-syntax-ns#" xmlns="http://www.w3.org/2000/svg" xmlns:xlink="http://www.w3.org/1999/xlink" x="0px" y="0px" width="76px" height="47px" viewBox="0 0 76 47" enable-background="new 0 0 76 47" xml:space="preserve"> <path fill="#00BCF2" d="M14.167,46.896C7.229,46.095,1.451,40.637,0.242,33.738c-1.771-10.105,6.437-19.337,16.673-18.753 c1.401,0.081,3.258,0.423,4.113,0.76c0.177,0.067,0.373-0.259,0.859-1.443c1.186-2.88,2.913-5.418,5.24-7.697 c3.259-3.191,7.093-5.243,11.74-6.284c1.269-0.285,1.89-0.325,4.809-0.321h3.354l2.025,0.532c3.404,0.893,6.23,2.253,8.834,4.252 c4.751,3.647,7.959,9.098,8.907,15.128c0.373,2.376,0.146,6.919-0.445,8.94l-0.137,0.462l1.375,0.083 c1.729,0.102,3.219,0.603,4.59,1.537c1.341,0.912,2.237,1.952,2.941,3.403c0.734,1.515,0.957,2.677,0.855,4.428 c-0.104,1.716-0.509,2.916-1.48,4.364c-1.119,1.671-2.722,2.84-4.889,3.572c-0.786,0.267-1.9,0.277-27.572,0.296 c-14.712,0.012-27.254-0.038-27.868-0.107V46.896z"/> </svg> </pattern><marker id="ProcessOnMarker1082" markerUnits="userSpaceOnUse" orient="auto" markerWidth="16.23606797749979" markerHeight="10.550836550532098" viewBox="-1.0 -1.3763819204711736 16.23606797749979 10.550836550532098" refX="-1.0" refY="3.8990363547948754"><path id="ProcessOnPath1083" d="M12.0 3.8990363547948754L0.0 7.798072709589751V0.0Z" stroke="#323232" stroke-width="2.0" fill="#323232" transform="matrix(1.0,0.0,0.0,1.0,0.0,0.0)"/></marker><marker id="ProcessOnMarker1086" markerUnits="userSpaceOnUse" orient="auto" markerWidth="16.23606797749979" markerHeight="10.550836550532098" viewBox="-1.0 -1.3763819204711736 16.23606797749979 10.550836550532098" refX="-1.0" refY="3.8990363547948754"><path id="ProcessOnPath1087" d="M12.0 3.8990363547948754L0.0 7.798072709589751V0.0Z" stroke="#323232" stroke-width="2.0" fill="#323232" transform="matrix(1.0,0.0,0.0,1.0,0.0,0.0)"/></marker><pattern id="ProcessOnPattern1090" patternUnits="userSpaceOnUse" width="52.0" height="77.0" patternTransform="matrix(1.0,0.0,0.0,1.0,0.0,0.0)"><svg version="1.1" id="图层_1" xmlns:dc="http://purl.org/dc/elements/1.1/" xmlns:cc="http://creativecommons.org/ns#" xmlns:rdf="http://www.w3.org/1999/02/22-rdf-syntax-ns#" xmlns="http://www.w3.org/2000/svg" xmlns:xlink="http://www.w3.org/1999/xlink" x="0px" y="0px" width="52px" height="77px" viewBox="0 0 52 77" enable-background="new 0 0 52 77" xml:space="preserve"> <path fill="#00BCF2" d="M4.354,0C1.936,0,0,1.936,0,4.357v68.221C0,74.998,1.936,77,4.354,77h43.29C50.063,77,52,74.999,52,72.578 V4.357C52,1.936,50.063,0,47.645,0H4.354z M16.64,4.164H35.36v2.081H16.64V4.164z M4.16,10.406h43.68v54.107H4.16V10.406z M25.87,25.494l-11.309,5.723l11.309,6.763l11.569-6.763L25.87,25.494z M14.561,33.298v12.486l10.399,6.243V39.543L14.561,33.298 L14.561,33.298z M37.439,33.361l-10.401,6.245v12.487l10.401-6.243V33.361L37.439,33.361z M18.719,68.676h14.559v4.164H18.719 V68.676z"/> </svg> </pattern><pattern id="ProcessOnPattern1096" patternUnits="userSpaceOnUse" width="52.0" height="77.0" patternTransform="matrix(1.0,0.0,0.0,1.0,0.0,0.0)"><svg version="1.1" id="图层_1" xmlns:dc="http://purl.org/dc/elements/1.1/" xmlns:cc="http://creativecommons.org/ns#" xmlns:rdf="http://www.w3.org/1999/02/22-rdf-syntax-ns#" xmlns="http://www.w3.org/2000/svg" xmlns:xlink="http://www.w3.org/1999/xlink" x="0px" y="0px" width="52px" height="77px" viewBox="0 0 52 77" enable-background="new 0 0 52 77" xml:space="preserve"> <path fill="#00BCF2" d="M4.354,0C1.936,0,0,1.936,0,4.357v68.221C0,74.998,1.936,77,4.354,77h43.29C50.063,77,52,74.999,52,72.578 V4.357C52,1.936,50.063,0,47.645,0H4.354z M16.64,4.164H35.36v2.081H16.64V4.164z M4.16,10.406h43.68v54.107H4.16V10.406z M25.87,25.494l-11.309,5.723l11.309,6.763l11.569-6.763L25.87,25.494z M14.561,33.298v12.486l10.399,6.243V39.543L14.561,33.298 L14.561,33.298z M37.439,33.361l-10.401,6.245v12.487l10.401-6.243V33.361L37.439,33.361z M18.719,68.676h14.559v4.164H18.719 V68.676z"/> </svg> </pattern><pattern id="ProcessOnPattern1102" patternUnits="userSpaceOnUse" width="52.0" height="77.0" patternTransform="matrix(1.0,0.0,0.0,1.0,0.0,0.0)"><svg version="1.1" id="图层_1" xmlns:dc="http://purl.org/dc/elements/1.1/" xmlns:cc="http://creativecommons.org/ns#" xmlns:rdf="http://www.w3.org/1999/02/22-rdf-syntax-ns#" xmlns="http://www.w3.org/2000/svg" xmlns:xlink="http://www.w3.org/1999/xlink" x="0px" y="0px" width="52px" height="77px" viewBox="0 0 52 77" enable-background="new 0 0 52 77" xml:space="preserve"> <path fill="#00BCF2" d="M4.354,0C1.936,0,0,1.936,0,4.357v68.221C0,74.998,1.936,77,4.354,77h43.29C50.063,77,52,74.999,52,72.578 V4.357C52,1.936,50.063,0,47.645,0H4.354z M16.64,4.164H35.36v2.081H16.64V4.164z M4.16,10.406h43.68v54.107H4.16V10.406z M25.87,25.494l-11.309,5.723l11.309,6.763l11.569-6.763L25.87,25.494z M14.561,33.298v12.486l10.399,6.243V39.543L14.561,33.298 L14.561,33.298z M37.439,33.361l-10.401,6.245v12.487l10.401-6.243V33.361L37.439,33.361z M18.719,68.676h14.559v4.164H18.719 V68.676z"/> </svg> </pattern><pattern id="ProcessOnPattern1108" patternUnits="userSpaceOnUse" width="52.0" height="77.0" patternTransform="matrix(1.0,0.0,0.0,1.0,0.0,0.0)"><svg version="1.1" id="图层_1" xmlns:dc="http://purl.org/dc/elements/1.1/" xmlns:cc="http://creativecommons.org/ns#" xmlns:rdf="http://www.w3.org/1999/02/22-rdf-syntax-ns#" xmlns="http://www.w3.org/2000/svg" xmlns:xlink="http://www.w3.org/1999/xlink" x="0px" y="0px" width="52px" height="77px" viewBox="0 0 52 77" enable-background="new 0 0 52 77" xml:space="preserve"> <path fill="#00BCF2" d="M4.354,0C1.936,0,0,1.936,0,4.357v68.221C0,74.998,1.936,77,4.354,77h43.29C50.063,77,52,74.999,52,72.578 V4.357C52,1.936,50.063,0,47.645,0H4.354z M16.64,4.164H35.36v2.081H16.64V4.164z M4.16,10.406h43.68v54.107H4.16V10.406z M25.87,25.494l-11.309,5.723l11.309,6.763l11.569-6.763L25.87,25.494z M14.561,33.298v12.486l10.399,6.243V39.543L14.561,33.298 L14.561,33.298z M37.439,33.361l-10.401,6.245v12.487l10.401-6.243V33.361L37.439,33.361z M18.719,68.676h14.559v4.164H18.719 V68.676z"/> </svg> </pattern><marker id="ProcessOnMarker1114" markerUnits="userSpaceOnUse" orient="auto" markerWidth="16.23606797749979" markerHeight="10.550836550532098" viewBox="-1.0 -1.3763819204711736 16.23606797749979 10.550836550532098" refX="-1.0" refY="3.8990363547948754"><path id="ProcessOnPath1115" d="M12.0 3.8990363547948754L0.0 7.798072709589751V0.0Z" stroke="#323232" stroke-width="2.0" fill="#323232" transform="matrix(1.0,0.0,0.0,1.0,0.0,0.0)"/></marker><marker id="ProcessOnMarker1118" markerUnits="userSpaceOnUse" orient="auto" markerWidth="16.23606797749979" markerHeight="10.550836550532098" viewBox="-1.0 -1.3763819204711736 16.23606797749979 10.550836550532098" refX="-1.0" refY="3.8990363547948754"><path id="ProcessOnPath1119" d="M12.0 3.8990363547948754L0.0 7.798072709589751V0.0Z" stroke="#323232" stroke-width="2.0" fill="#323232" transform="matrix(1.0,0.0,0.0,1.0,0.0,0.0)"/></marker><marker id="ProcessOnMarker1122" markerUnits="userSpaceOnUse" orient="auto" markerWidth="16.23606797749979" markerHeight="10.550836550532098" viewBox="-1.0 -1.3763819204711736 16.23606797749979 10.550836550532098" refX="-1.0" refY="3.8990363547948754"><path id="ProcessOnPath1123" d="M12.0 3.8990363547948754L0.0 7.798072709589751V0.0Z" stroke="#323232" stroke-width="2.0" fill="#323232" transform="matrix(1.0,0.0,0.0,1.0,0.0,0.0)"/></marker><marker id="ProcessOnMarker1126" markerUnits="userSpaceOnUse" orient="auto" markerWidth="16.23606797749979" markerHeight="10.550836550532098" viewBox="-1.0 -1.3763819204711736 16.23606797749979 10.550836550532098" refX="-1.0" refY="3.8990363547948754"><path id="ProcessOnPath1127" d="M12.0 3.8990363547948754L0.0 7.798072709589751V0.0Z" stroke="#323232" stroke-width="2.0" fill="#323232" transform="matrix(1.0,0.0,0.0,1.0,0.0,0.0)"/></marker><marker id="ProcessOnMarker1130" markerUnits="userSpaceOnUse" orient="auto" markerWidth="16.23606797749979" markerHeight="10.550836550532098" viewBox="-1.0 -1.3763819204711736 16.23606797749979 10.550836550532098" refX="-1.0" refY="3.8990363547948754"><path id="ProcessOnPath1131" d="M12.0 3.8990363547948754L0.0 7.798072709589751V0.0Z" stroke="#323232" stroke-width="2.0" fill="#323232" transform="matrix(1.0,0.0,0.0,1.0,0.0,0.0)"/></marker><marker id="ProcessOnMarker1134" markerUnits="userSpaceOnUse" orient="auto" markerWidth="16.23606797749979" markerHeight="10.550836550532098" viewBox="-1.0 -1.3763819204711736 16.23606797749979 10.550836550532098" refX="-1.0" refY="3.8990363547948754"><path id="ProcessOnPath1135" d="M12.0 3.8990363547948754L0.0 7.798072709589751V0.0Z" stroke="#323232" stroke-width="2.0" fill="#323232" transform="matrix(1.0,0.0,0.0,1.0,0.0,0.0)"/></marker><pattern id="ProcessOnPattern1141" patternUnits="userSpaceOnUse" width="58.0" height="76.0" patternTransform="matrix(1.0,0.0,0.0,1.0,0.0,0.0)"><svg version="1.1" id="图层_1" xmlns:dc="http://purl.org/dc/elements/1.1/" xmlns:cc="http://creativecommons.org/ns#" xmlns:rdf="http://www.w3.org/1999/02/22-rdf-syntax-ns#" xmlns="http://www.w3.org/2000/svg" xmlns:xlink="http://www.w3.org/1999/xlink" x="0px" y="0px" width="58px" height="76px" viewBox="0 0 58 76" enable-background="new 0 0 58 76" xml:space="preserve"> <path fill="#00BCF2" d="M21.22,75.765c-6.77-0.901-12.765-2.901-16.799-5.605c-1.55-1.039-3.411-2.948-3.975-4.077L0,65.187v-27.6 V9.988l0.429-0.817c1.939-3.691,8.506-6.844,17.38-8.341C22.051,0.114,23.693-0.006,29.038,0c5.265,0.01,7.196,0.163,11.241,0.908 c8.873,1.631,15.433,4.88,17.249,8.546L58,10.41v27.761l-0.001,27.761l-0.425,0.896c-2.004,4.203-10.132,7.712-20.719,8.941 c-2.673,0.31-13.292,0.308-15.636,0V75.765z M35.653,16.106c6.081-0.625,10.83-2.054,12.767-3.842 c0.834-0.772,1.093-1.263,1.093-2.084c0-2.544-5.237-4.773-13.477-5.735c-2.757-0.321-10.684-0.369-13.328-0.078 C15.438,5.161,10.351,6.83,8.845,8.913c-0.492,0.68-0.582,1.624-0.221,2.322c1.07,2.074,5.875,3.904,12.371,4.715 C25.452,16.506,31.169,16.568,35.653,16.106L35.653,16.106z"/> </svg> </pattern><marker id="ProcessOnMarker1150" markerUnits="userSpaceOnUse" orient="auto" markerWidth="16.23606797749979" markerHeight="10.550836550532098" viewBox="-1.0 -1.3763819204711736 16.23606797749979 10.550836550532098" refX="-1.0" refY="3.8990363547948754"><path id="ProcessOnPath1151" d="M12.0 3.8990363547948754L0.0 7.798072709589751V0.0Z" stroke="#323232" stroke-width="2.0" fill="#323232" transform="matrix(1.0,0.0,0.0,1.0,0.0,0.0)"/></marker><marker id="ProcessOnMarker1157" markerUnits="userSpaceOnUse" orient="auto" markerWidth="16.23606797749979" markerHeight="10.550836550532098" viewBox="-1.0 -1.3763819204711736 16.23606797749979 10.550836550532098" refX="-1.0" refY="3.8990363547948754"><path id="ProcessOnPath1158" d="M12.0 3.8990363547948754L0.0 7.798072709589751V0.0Z" stroke="#323232" stroke-width="2.0" fill="#323232" transform="matrix(1.0,0.0,0.0,1.0,0.0,0.0)"/></marker><pattern id="ProcessOnPattern1161" patternUnits="userSpaceOnUse" width="75.0" height="75.0" patternTransform="matrix(1.0,0.0,0.0,1.0,0.0,0.0)"><svg version="1.1" id="图层_1" xmlns:dc="http://purl.org/dc/elements/1.1/" xmlns:cc="http://creativecommons.org/ns#" xmlns:rdf="http://www.w3.org/1999/02/22-rdf-syntax-ns#" xmlns="http://www.w3.org/2000/svg" xmlns:xlink="http://www.w3.org/1999/xlink" x="0px" y="0px" width="75px" height="75px" viewBox="0 0 75 75" enable-background="new 0 0 75 75" xml:space="preserve"> <path fill="#00BCF2" d="M1.398,73.64c0.322-6.125,1.769-11.747,4.324-16.809c2.85-5.641,6.373-9.628,10.458-11.83 c2.615-1.41,5.66-1.558,9.035-0.437c1.532,0.509,2.477,1.013,5.224,2.783c7.403,4.774,12.203,6.578,16.071,6.04 c1.464-0.203,2.597-0.601,4.677-1.639c1.855-0.925,2.43-1.342,4.628-3.351c0.808-0.738,1.793-1.519,2.189-1.733 c0.644-0.351,0.822-0.382,1.686-0.303c2.462,0.23,4.68,2.079,7.391,6.158c2.396,3.608,3.638,6.454,4.692,10.762 c0.604,2.47,1.107,5.306,1.468,8.261c0.167,1.376,0.333,2.716,0.368,2.979L73.674,75H37.501H1.326L1.398,73.64L1.398,73.64z M40.054,43.59c-6.679-1.046-12.624-5.691-15.813-12.358c-1.648-3.444-2.334-6.552-2.353-10.668 c-0.038-8.003,4.14-15.267,10.704-18.617c2.81-1.434,5.637-2.059,8.732-1.931c3.017,0.125,4.764,0.573,7.576,1.941 c2.041,0.993,3.119,1.707,4.743,3.141C59.062,9.88,62.13,17.534,61.507,24.7c-0.372,4.262-1.501,7.592-3.684,10.866 C53.886,41.472,46.844,44.651,40.054,43.59L40.054,43.59z"/> </svg> </pattern><marker id="ProcessOnMarker1166" markerUnits="userSpaceOnUse" orient="auto" markerWidth="16.23606797749979" markerHeight="10.550836550532098" viewBox="-1.0 -1.3763819204711736 16.23606797749979 10.550836550532098" refX="-1.0" refY="3.8990363547948754"><path id="ProcessOnPath1167" d="M12.0 3.8990363547948754L0.0 7.798072709589751V0.0Z" stroke="#323232" stroke-width="2.0" fill="#323232" transform="matrix(1.0,0.0,0.0,1.0,0.0,0.0)"/></marker><marker id="ProcessOnMarker1170" markerUnits="userSpaceOnUse" orient="auto" markerWidth="16.23606797749979" markerHeight="10.550836550532098" viewBox="-1.0 -1.3763819204711736 16.23606797749979 10.550836550532098" refX="-1.0" refY="3.8990363547948754"><path id="ProcessOnPath1171" d="M12.0 3.8990363547948754L0.0 7.798072709589751V0.0Z" stroke="#323232" stroke-width="2.0" fill="#323232" transform="matrix(1.0,0.0,0.0,1.0,0.0,0.0)"/></marker><marker id="ProcessOnMarker1177" markerUnits="userSpaceOnUse" orient="auto" markerWidth="16.23606797749979" markerHeight="10.550836550532098" viewBox="-1.0 -1.3763819204711736 16.23606797749979 10.550836550532098" refX="-1.0" refY="3.8990363547948754"><path id="ProcessOnPath1178" d="M12.0 3.8990363547948754L0.0 7.798072709589751V0.0Z" stroke="#323232" stroke-width="2.0" fill="#323232" transform="matrix(1.0,0.0,0.0,1.0,0.0,0.0)"/></marker><marker id="ProcessOnMarker1181" markerUnits="userSpaceOnUse" orient="auto" markerWidth="16.23606797749979" markerHeight="10.550836550532098" viewBox="-1.0 -1.3763819204711736 16.23606797749979 10.550836550532098" refX="-1.0" refY="3.8990363547948754"><path id="ProcessOnPath1182" d="M12.0 3.8990363547948754L0.0 7.798072709589751V0.0Z" stroke="#323232" stroke-width="2.0" fill="#323232" transform="matrix(1.0,0.0,0.0,1.0,0.0,0.0)"/></marker><marker id="ProcessOnMarker1192" markerUnits="userSpaceOnUse" orient="auto" markerWidth="16.23606797749979" markerHeight="10.550836550532098" viewBox="-1.0 -1.3763819204711736 16.23606797749979 10.550836550532098" refX="-1.0" refY="3.8990363547948754"><path id="ProcessOnPath1193" d="M12.0 3.8990363547948754L0.0 7.798072709589751V0.0Z" stroke="#323232" stroke-width="2.0" fill="#323232" transform="matrix(1.0,0.0,0.0,1.0,0.0,0.0)"/></marker><marker id="ProcessOnMarker1196" markerUnits="userSpaceOnUse" orient="auto" markerWidth="16.23606797749979" markerHeight="10.550836550532098" viewBox="-1.0 -1.3763819204711736 16.23606797749979 10.550836550532098" refX="-1.0" refY="3.8990363547948754"><path id="ProcessOnPath1197" d="M12.0 3.8990363547948754L0.0 7.798072709589751V0.0Z" stroke="#323232" stroke-width="2.0" fill="#323232" transform="matrix(1.0,0.0,0.0,1.0,0.0,0.0)"/></marker><marker id="ProcessOnMarker1203" markerUnits="userSpaceOnUse" orient="auto" markerWidth="16.23606797749979" markerHeight="10.550836550532098" viewBox="-1.0 -1.3763819204711736 16.23606797749979 10.550836550532098" refX="-1.0" refY="3.8990363547948754"><path id="ProcessOnPath1204" d="M12.0 3.8990363547948754L0.0 7.798072709589751V0.0Z" stroke="#323232" stroke-width="2.0" fill="#323232" transform="matrix(1.0,0.0,0.0,1.0,0.0,0.0)"/></marker><marker id="ProcessOnMarker1207" markerUnits="userSpaceOnUse" orient="auto" markerWidth="16.23606797749979" markerHeight="10.550836550532098" viewBox="-1.0 -1.3763819204711736 16.23606797749979 10.550836550532098" refX="-1.0" refY="3.8990363547948754"><path id="ProcessOnPath1208" d="M12.0 3.8990363547948754L0.0 7.798072709589751V0.0Z" stroke="#323232" stroke-width="2.0" fill="#323232" transform="matrix(1.0,0.0,0.0,1.0,0.0,0.0)"/></marker><pattern id="ProcessOnPattern1211" patternUnits="userSpaceOnUse" width="80.0" height="74.0" patternTransform="matrix(1.0,0.0,0.0,1.0,0.0,0.0)"><svg version="1.1" id="图层_1" xmlns:dc="http://purl.org/dc/elements/1.1/" xmlns:cc="http://creativecommons.org/ns#" xmlns:rdf="http://www.w3.org/1999/02/22-rdf-syntax-ns#" xmlns="http://www.w3.org/2000/svg" xmlns:xlink="http://www.w3.org/1999/xlink" x="0px" y="0px" width="80px" height="74px" viewBox="0 0 80 74" enable-background="new 0 0 80 74" xml:space="preserve"> <path fill="#00BCF2" d="M12.171,71.513v-2.488l4.199-0.093c8.087-0.18,11.128-1.028,12.413-3.463 c0.395-0.75,0.423-0.929,0.401-2.611c-0.013-1.182-0.123-2.208-0.317-2.98L28.57,58.7l-12.557-0.079l-12.56-0.079l-0.801-0.364 c-0.938-0.422-1.77-1.236-2.287-2.225L0,55.247V29.271V3.297l0.354-0.663c0.555-1.041,1.242-1.72,2.209-2.194L3.453,0h36.274h36.274 l1.019,0.486c1.212,0.576,2.097,1.419,2.606,2.497L80,3.768V29.32v25.553l-0.423,0.87c-0.501,1.016-1.354,1.809-2.559,2.388 l-0.865,0.411L63.25,58.584l-12.91,0.047l-0.235,0.823c-0.698,2.443-0.913,4.854-0.547,6.082c0.735,2.448,4.252,3.432,12.265,3.443 h2.789v2.51V74H38.391H12.165v-2.489L12.171,71.513z M73.881,29.271V6.2h-33.84H6.203v23.071V52.34h33.838h33.842V29.271H73.881z"/> </svg> </pattern><pattern id="ProcessOnPattern1216" patternUnits="userSpaceOnUse" width="75.0" height="75.0" patternTransform="matrix(1.0,0.0,0.0,1.0,0.0,0.0)"><svg version="1.1" id="图层_1" xmlns:dc="http://purl.org/dc/elements/1.1/" xmlns:cc="http://creativecommons.org/ns#" xmlns:rdf="http://www.w3.org/1999/02/22-rdf-syntax-ns#" xmlns="http://www.w3.org/2000/svg" xmlns:xlink="http://www.w3.org/1999/xlink" x="0px" y="0px" width="75px" height="75px" viewBox="0 0 75 75" enable-background="new 0 0 75 75" xml:space="preserve"> <path fill="#00BCF2" d="M8.929,74.705c-1.862-0.477-3.146-1.223-4.57-2.637c-0.983-0.976-1.393-1.521-1.864-2.463 c-1.234-2.466-1.14,0.135-1.14-32.102c0-27.259,0.012-28.661,0.269-29.761c0.674-2.868,2.653-5.358,5.256-6.614 c2.494-1.204,0.647-1.128,27.646-1.128h23.99l7.562,7.464l7.567,7.462L73.6,40.812c-0.049,29.006,0.063,26.278-1.154,28.754 c-0.491,1.009-0.855,1.491-1.877,2.501c-1.449,1.436-2.74,2.171-4.639,2.646c-1.139,0.288-1.665,0.293-28.53,0.285 C10.83,74.988,9.999,74.983,8.929,74.705L8.929,74.705z M64.752,68.761c0.908-0.271,1.711-0.925,2.235-1.817l0.402-0.687 l0.04-23.937l0.036-23.936h-6.029h-6.03V12.28V6.176H33.011c-14.565,0-22.576,0.054-22.924,0.151 C9.33,6.536,8.214,7.577,7.806,8.452l-0.343,0.74v28.256c0,30.855-0.058,28.867,0.82,30.015c0.435,0.569,1.278,1.14,1.991,1.347 c0.31,0.088,10.457,0.147,27.125,0.155c23.039,0.011,26.729-0.021,27.354-0.204H64.752z M36.947,57.365 c-0.164-0.066-0.477-0.302-0.698-0.524c-1.068-1.068-0.767-3.036,0.653-4.253c1.119-0.958,1.338-0.98,8.814-0.937 c6.403,0.044,6.695,0.057,7.186,0.344c0.75,0.435,1.068,1.131,0.966,2.104c-0.111,1.001-0.492,1.739-1.266,2.438 c-1.103,0.998-0.867,0.968-8.483,0.958C40.338,57.495,37.108,57.432,36.947,57.365L36.947,57.365z M21.847,57.206 c-0.595-0.099-1.229-0.468-1.623-0.941c-0.606-0.726-0.449-2.009,0.358-2.931c0.263-0.299,5.444-4.004,11.509-8.239 c6.067-4.234,11.032-7.766,11.032-7.845c0-0.08-3.144-3.662-6.985-7.957c-4.708-5.262-7.054-7.991-7.187-8.368 c-0.275-0.756-0.027-1.634,0.686-2.425c0.938-1.04,2.07-1.378,3.056-0.91c0.629,0.298,16.17,17.644,16.646,18.577 c0.441,0.868,0.441,1.946,0,2.784c-0.295,0.555-1.643,1.538-12.465,9.095c-6.673,4.66-12.369,8.591-12.656,8.74 C23.543,57.142,22.526,57.323,21.847,57.206L21.847,57.206z"/> </svg> </pattern><marker id="ProcessOnMarker1223" markerUnits="userSpaceOnUse" orient="auto" markerWidth="16.23606797749979" markerHeight="10.550836550532098" viewBox="-1.0 -1.3763819204711736 16.23606797749979 10.550836550532098" refX="-1.0" refY="3.8990363547948754"><path id="ProcessOnPath1224" d="M12.0 3.8990363547948754L0.0 7.798072709589751V0.0Z" stroke="#323232" stroke-width="2.0" fill="#323232" transform="matrix(1.0,0.0,0.0,1.0,0.0,0.0)"/></marker><marker id="ProcessOnMarker1227" markerUnits="userSpaceOnUse" orient="auto" markerWidth="16.23606797749979" markerHeight="10.550836550532098" viewBox="-1.0 -1.3763819204711736 16.23606797749979 10.550836550532098" refX="-1.0" refY="3.8990363547948754"><path id="ProcessOnPath1228" d="M12.0 3.8990363547948754L0.0 7.798072709589751V0.0Z" stroke="#323232" stroke-width="2.0" fill="#323232" transform="matrix(1.0,0.0,0.0,1.0,0.0,0.0)"/></marker><marker id="ProcessOnMarker1231" markerUnits="userSpaceOnUse" orient="auto" markerWidth="16.23606797749979" markerHeight="10.550836550532098" viewBox="-1.0 -1.3763819204711736 16.23606797749979 10.550836550532098" refX="-1.0" refY="3.8990363547948754"><path id="ProcessOnPath1232" d="M12.0 3.8990363547948754L0.0 7.798072709589751V0.0Z" stroke="#323232" stroke-width="2.0" fill="#323232" transform="matrix(1.0,0.0,0.0,1.0,0.0,0.0)"/></marker><marker id="ProcessOnMarker1235" markerUnits="userSpaceOnUse" orient="auto" markerWidth="16.23606797749979" markerHeight="10.550836550532098" viewBox="-1.0 -1.3763819204711736 16.23606797749979 10.550836550532098" refX="-1.0" refY="3.8990363547948754"><path id="ProcessOnPath1236" d="M12.0 3.8990363547948754L0.0 7.798072709589751V0.0Z" stroke="#323232" stroke-width="2.0" fill="#323232" transform="matrix(1.0,0.0,0.0,1.0,0.0,0.0)"/></marker></defs><g id="ProcessOnG1002"><path id="ProcessOnPath1003" d="M62.666656494140625 63.0H1193.1666564941406V841.375H62.666656494140625V63.0Z" fill="none"/><g id="ProcessOnG1004"><g id="ProcessOnG1005"><path id="ProcessOnPath1006" d="M417.5 468.5L387.5 468.5L387.5 549.0L751.0 549.0L751.0 534.2360679774998" stroke="#323232" stroke-width="2.0" stroke-dasharray="none" fill="none" marker-end="url(#ProcessOnMarker1007)"/></g><g id="ProcessOnG1009"><path id="ProcessOnPath1010" d="M627.0 532.0L775.3333282470703 532.0L775.3333282470703 532.0L908.4305885166408 532.0" stroke="#323232" stroke-width="2.0" stroke-dasharray="none" fill="none" marker-end="url(#ProcessOnMarker1011)"/></g><g id="ProcessOnG1013" transform="matrix(1.0,0.0,0.0,1.0,711.0,189.0)" opacity="1.0"><path id="ProcessOnPath1014" d="M0.0 0.0L80.0 0.0L80.0 74.0L0.0 74.0Z" stroke="#323232" stroke-width="0.0" stroke-dasharray="none" opacity="1.0" fill="url(#ProcessOnPattern1015)"/><g id="ProcessOnG1016" transform="matrix(1.0,0.0,0.0,1.0,-20.0,72.75)"><text id="ProcessOnText1017" fill="#000000" font-weight="bold" font-style="normal" text-decoration="none" font-family="微软雅黑" text-anchor="middle" font-size="13" x="59.0" y="13.325">触摸屏电脑，显示w</text><text id="ProcessOnText1018" fill="#000000" font-weight="bold" font-style="normal" text-decoration="none" font-family="微软雅黑" text-anchor="middle" font-size="13" x="59.0" y="29.575">eb操作页面</text></g></g><g id="ProcessOnG1019" transform="matrix(1.0,0.0,0.0,1.0,711.0,324.0)" opacity="1.0"><path id="ProcessOnPath1020" d="M0.0 0.0L80.0 0.0L80.0 74.0L0.0 74.0Z" stroke="#323232" stroke-width="0.0" stroke-dasharray="none" opacity="1.0" fill="url(#ProcessOnPattern1021)"/><g id="ProcessOnG1022" transform="matrix(1.0,0.0,0.0,1.0,-20.0,72.75)"><text id="ProcessOnText1023" fill="#000000" font-weight="bold" font-style="normal" text-decoration="none" font-family="微软雅黑" text-anchor="middle" font-size="13" x="59.0" y="13.325">讯问/询问，显示we</text><text id="ProcessOnText1024" fill="#000000" font-weight="bold" font-style="normal" text-decoration="none" font-family="微软雅黑" text-anchor="middle" font-size="13" x="59.0" y="29.575">b操作页面</text></g></g><g id="ProcessOnG1025" transform="matrix(1.0,0.0,0.0,1.0,551.0,226.0)" opacity="1.0"><path id="ProcessOnPath1026" d="M0.0 0.0L76.0 0.0L76.0 24.0L0.0 24.0Z" stroke="#323232" stroke-width="0.0" stroke-dasharray="none" opacity="1.0" fill="url(#ProcessOnPattern1027)"/><g id="ProcessOnG1028" transform="matrix(1.0,0.0,0.0,1.0,-20.0,22.75)"><text id="ProcessOnText1029" fill="#000000" font-weight="normal" font-style="normal" text-decoration="none" font-family="微软雅黑" text-anchor="middle" font-size="13" x="57.0" y="13.325">智能化终端（树莓</text><text id="ProcessOnText1030" fill="#000000" font-weight="normal" font-style="normal" text-decoration="none" font-family="微软雅黑" text-anchor="middle" font-size="13" x="57.0" y="29.575">派3代）</text></g></g><g id="ProcessOnG1031" transform="matrix(1.0,0.0,0.0,1.0,551.0,361.0)" opacity="1.0"><path id="ProcessOnPath1032" d="M0.0 0.0L76.0 0.0L76.0 24.0L0.0 24.0Z" stroke="#323232" stroke-width="0.0" stroke-dasharray="none" opacity="1.0" fill="url(#ProcessOnPattern1033)"/><g id="ProcessOnG1034" transform="matrix(1.0,0.0,0.0,1.0,-20.0,22.75)"><text id="ProcessOnText1035" fill="#000000" font-weight="normal" font-style="normal" text-decoration="none" font-family="微软雅黑" text-anchor="middle" font-size="13" x="57.0" y="13.325">智能化终端（树莓</text><text id="ProcessOnText1036" fill="#000000" font-weight="normal" font-style="normal" text-decoration="none" font-family="微软雅黑" text-anchor="middle" font-size="13" x="57.0" y="29.575">派3代）</text></g></g><g id="ProcessOnG1037" transform="matrix(1.0,0.0,0.0,1.0,551.0,520.0)" opacity="1.0"><path id="ProcessOnPath1038" d="M0.0 0.0L76.0 0.0L76.0 24.0L0.0 24.0Z" stroke="#323232" stroke-width="0.0" stroke-dasharray="none" opacity="1.0" fill="url(#ProcessOnPattern1039)"/><g id="ProcessOnG1040" transform="matrix(1.0,0.0,0.0,1.0,-20.0,22.75)"><text id="ProcessOnText1041" fill="#000000" font-weight="normal" font-style="normal" text-decoration="none" font-family="微软雅黑" text-anchor="middle" font-size="13" x="57.0" y="13.325">智能化终端（树莓</text><text id="ProcessOnText1042" fill="#000000" font-weight="normal" font-style="normal" text-decoration="none" font-family="微软雅黑" text-anchor="middle" font-size="13" x="57.0" y="29.575">派3代）</text></g></g><g id="ProcessOnG1043" transform="matrix(1.0,0.0,0.0,1.0,551.0,618.0)" opacity="1.0"><path id="ProcessOnPath1044" d="M0.0 0.0L76.0 0.0L76.0 24.0L0.0 24.0Z" stroke="#323232" stroke-width="0.0" stroke-dasharray="none" opacity="1.0" fill="url(#ProcessOnPattern1045)"/><g id="ProcessOnG1046" transform="matrix(1.0,0.0,0.0,1.0,-20.0,22.75)"><text id="ProcessOnText1047" fill="#000000" font-weight="normal" font-style="normal" text-decoration="none" font-family="微软雅黑" text-anchor="middle" font-size="13" x="57.0" y="13.325">智能化终端（树莓</text><text id="ProcessOnText1048" fill="#000000" font-weight="normal" font-style="normal" text-decoration="none" font-family="微软雅黑" text-anchor="middle" font-size="13" x="57.0" y="29.575">派3代）</text></g></g><g id="ProcessOnG1049" transform="matrix(1.0,0.0,0.0,1.0,181.5,539.0)" opacity="1.0"><path id="ProcessOnPath1050" d="M0.0 0.0L57.0 0.0L57.0 76.0L0.0 76.0Z" stroke="#323232" stroke-width="0.0" stroke-dasharray="none" opacity="1.0" fill="url(#ProcessOnPattern1051)"/><g id="ProcessOnG1052" transform="matrix(1.0,0.0,0.0,1.0,-20.0,82.875)"><text id="ProcessOnText1053" fill="#000000" font-weight="normal" font-style="normal" text-decoration="none" font-family="微软雅黑" text-anchor="middle" font-size="13" x="47.5" y="13.325">MySQL服务器</text></g></g><g id="ProcessOnG1054" transform="matrix(1.0,0.0,0.0,1.0,417.5,431.0)" opacity="1.0"><path id="ProcessOnPath1055" d="M0.0 0.0L75.0 0.0L75.0 75.0L0.0 75.0Z" stroke="#323232" stroke-width="0.0" stroke-dasharray="none" opacity="1.0" fill="url(#ProcessOnPattern1056)"/><g id="ProcessOnG1057" transform="matrix(1.0,0.0,0.0,1.0,-20.0,81.875)"><text id="ProcessOnText1058" fill="#000000" font-weight="normal" font-style="normal" text-decoration="none" font-family="微软雅黑" text-anchor="middle" font-size="13" x="56.5" y="13.325">Web服务器</text></g></g><g id="ProcessOnG1059"><path id="ProcessOnPath1060" d="M551.0 238.0L455.0 238.0L455.0 415.7639320225002" stroke="#323232" stroke-width="2.0" stroke-dasharray="none" fill="none" marker-end="url(#ProcessOnMarker1061)"/></g><g id="ProcessOnG1063"><path id="ProcessOnPath1064" d="M551.0 373.0L455.0 373.0L455.0 415.7639320225002" stroke="#323232" stroke-width="2.0" stroke-dasharray="none" fill="none" marker-end="url(#ProcessOnMarker1065)"/></g><g id="ProcessOnG1067"><path id="ProcessOnPath1068" d="M551.0 532.0L455.0 532.0L455.0 521.2360679774998" stroke="#323232" stroke-width="2.0" stroke-dasharray="none" fill="none" marker-end="url(#ProcessOnMarker1069)"/></g><g id="ProcessOnG1071"><path id="ProcessOnPath1072" d="M551.0 630.0L455.0 630.0L455.0 521.2360679774998" stroke="#323232" stroke-width="2.0" stroke-dasharray="none" fill="none" marker-end="url(#ProcessOnMarker1073)"/></g><g id="ProcessOnG1075" transform="matrix(1.0,0.0,0.0,1.0,280.0,445.0)" opacity="1.0"><path id="ProcessOnPath1076" d="M0.0 0.0L76.0 0.0L76.0 47.0L0.0 47.0Z" stroke="#323232" stroke-width="0.0" stroke-dasharray="none" opacity="1.0" fill="url(#ProcessOnPattern1077)"/><g id="ProcessOnG1078" transform="matrix(1.0,0.0,0.0,1.0,-20.0,53.875)"><text id="ProcessOnText1079" fill="#000000" font-weight="normal" font-style="normal" text-decoration="none" font-family="微软雅黑" text-anchor="middle" font-size="13" x="57.0" y="13.325">办案区标准化模块</text></g></g><g id="ProcessOnG1080"><path id="ProcessOnPath1081" d="M417.5 468.5L386.75 468.5L386.75 468.5L371.2360679774998 468.5" stroke="#323232" stroke-width="2.0" stroke-dasharray="none" fill="none" marker-end="url(#ProcessOnMarker1082)"/></g><g id="ProcessOnG1084"><path id="ProcessOnPath1085" d="M280.0 468.5L210.0 468.5L210.0 523.7639320225002" stroke="#323232" stroke-width="2.0" stroke-dasharray="none" fill="none" marker-end="url(#ProcessOnMarker1086)"/></g><g id="ProcessOnG1088" transform="matrix(1.0,0.0,0.0,1.0,923.6666564941406,199.5)" opacity="1.0"><path id="ProcessOnPath1089" d="M0.0 0.0L52.0 0.0L52.0 77.0L0.0 77.0Z" stroke="#323232" stroke-width="0.0" stroke-dasharray="none" opacity="1.0" fill="url(#ProcessOnPattern1090)"/><g id="ProcessOnG1091" transform="matrix(1.0,0.0,0.0,1.0,-20.0,75.75)"><text id="ProcessOnText1092" fill="#000000" font-weight="normal" font-style="normal" text-decoration="none" font-family="微软雅黑" text-anchor="middle" font-size="13" x="45.0" y="13.325">RFID远距离读</text><text id="ProcessOnText1093" fill="#000000" font-weight="normal" font-style="normal" text-decoration="none" font-family="微软雅黑" text-anchor="middle" font-size="13" x="45.0" y="29.575">卡器</text></g></g><g id="ProcessOnG1094" transform="matrix(1.0,0.0,0.0,1.0,923.6666564941406,334.5)" opacity="1.0"><path id="ProcessOnPath1095" d="M0.0 0.0L52.0 0.0L52.0 77.0L0.0 77.0Z" stroke="#323232" stroke-width="0.0" stroke-dasharray="none" opacity="1.0" fill="url(#ProcessOnPattern1096)"/><g id="ProcessOnG1097" transform="matrix(1.0,0.0,0.0,1.0,-20.0,75.75)"><text id="ProcessOnText1098" fill="#000000" font-weight="normal" font-style="normal" text-decoration="none" font-family="微软雅黑" text-anchor="middle" font-size="13" x="45.0" y="13.325">RFID远距离读</text><text id="ProcessOnText1099" fill="#000000" font-weight="normal" font-style="normal" text-decoration="none" font-family="微软雅黑" text-anchor="middle" font-size="13" x="45.0" y="29.575">卡器</text></g></g><g id="ProcessOnG1100" transform="matrix(1.0,0.0,0.0,1.0,923.6666564941406,493.5)" opacity="1.0"><path id="ProcessOnPath1101" d="M0.0 0.0L52.0 0.0L52.0 77.0L0.0 77.0Z" stroke="#323232" stroke-width="0.0" stroke-dasharray="none" opacity="1.0" fill="url(#ProcessOnPattern1102)"/><g id="ProcessOnG1103" transform="matrix(1.0,0.0,0.0,1.0,-20.0,75.75)"><text id="ProcessOnText1104" fill="#000000" font-weight="normal" font-style="normal" text-decoration="none" font-family="微软雅黑" text-anchor="middle" font-size="13" x="45.0" y="13.325">RFID远距离读</text><text id="ProcessOnText1105" fill="#000000" font-weight="normal" font-style="normal" text-decoration="none" font-family="微软雅黑" text-anchor="middle" font-size="13" x="45.0" y="29.575">卡器</text></g></g><g id="ProcessOnG1106" transform="matrix(1.0,0.0,0.0,1.0,923.6666564941406,636.1666717529297)" opacity="1.0"><path id="ProcessOnPath1107" d="M0.0 0.0L52.0 0.0L52.0 77.0L0.0 77.0Z" stroke="#323232" stroke-width="0.0" stroke-dasharray="none" opacity="1.0" fill="url(#ProcessOnPattern1108)"/><g id="ProcessOnG1109" transform="matrix(1.0,0.0,0.0,1.0,-20.0,75.75)"><text id="ProcessOnText1110" fill="#000000" font-weight="normal" font-style="normal" text-decoration="none" font-family="微软雅黑" text-anchor="middle" font-size="13" x="45.0" y="13.325">RFID远距离读</text><text id="ProcessOnText1111" fill="#000000" font-weight="normal" font-style="normal" text-decoration="none" font-family="微软雅黑" text-anchor="middle" font-size="13" x="45.0" y="29.575">卡器</text></g></g><g id="ProcessOnG1112"><path id="ProcessOnPath1113" d="M417.5 468.5L387.5 468.5L387.5 361.0L695.7639320225002 361.0" stroke="#323232" stroke-width="2.0" stroke-dasharray="none" fill="none" marker-end="url(#ProcessOnMarker1114)"/></g><g id="ProcessOnG1116"><path id="ProcessOnPath1117" d="M417.5 468.5L387.5 468.5L387.5 226.0L695.7639320225002 226.0" stroke="#323232" stroke-width="2.0" stroke-dasharray="none" fill="none" marker-end="url(#ProcessOnMarker1118)"/></g><g id="ProcessOnG1120"><path id="ProcessOnPath1121" d="M627.0 373.0L775.3333282470703 373.0L775.3333282470703 373.0L908.4305885166408 373.0" stroke="#323232" stroke-width="2.0" stroke-dasharray="none" fill="none" marker-end="url(#ProcessOnMarker1122)"/></g><g id="ProcessOnG1124"><path id="ProcessOnPath1125" d="M627.0 238.0L775.3333282470703 238.0L775.3333282470703 238.0L908.4305885166408 238.0" stroke="#323232" stroke-width="2.0" stroke-dasharray="none" fill="none" marker-end="url(#ProcessOnMarker1126)"/></g><g id="ProcessOnG1128"><path id="ProcessOnPath1129" d="M627.0 630.0L775.3333282470703 630.0L775.3333282470703 674.6666717529297L908.4305885166408 674.6666717529297" stroke="#323232" stroke-width="2.0" stroke-dasharray="none" fill="none" marker-end="url(#ProcessOnMarker1130)"/></g><g id="ProcessOnG1132"><path id="ProcessOnPath1133" d="M210.0 539.0L210.0 468.5L264.7639320225002 468.5" stroke="#323232" stroke-width="2.0" stroke-dasharray="none" fill="none" marker-end="url(#ProcessOnMarker1134)"/><g id="ProcessOnG1136" transform="matrix(1.0,0.0,0.0,1.0,210.0,468.24303398874986)"><path id="ProcessOnPath1137" d="M0 0H26.0V16.25H0Z" fill="#fff" transform="matrix(1.0,0.0,0.0,1.0,-13.0,0.0)"/><text id="ProcessOnText1138" fill="#000000" font-weight="bold" font-style="normal" text-decoration="none" font-family="微软雅黑" text-anchor="middle" font-size="13" x="0.0" y="13.325">数据</text></g></g><g id="ProcessOnG1139" transform="matrix(1.0,0.0,0.0,1.0,289.0,631.0)" opacity="1.0"><path id="ProcessOnPath1140" d="M0.0 0.0L58.0 0.0L58.0 76.0L0.0 76.0Z" stroke="#323232" stroke-width="0.0" stroke-dasharray="none" opacity="1.0" fill="url(#ProcessOnPattern1141)"/><g id="ProcessOnG1142" transform="matrix(1.0,0.0,0.0,1.0,-20.0,47.25)"><text id="ProcessOnText1143" fill="#000000" font-weight="bold" font-style="normal" text-decoration="none" font-family="微软雅黑" text-anchor="middle" font-size="14" x="48.0" y="14.350000000000001">录播服务器，</text><text id="ProcessOnText1144" fill="#000000" font-weight="bold" font-style="normal" text-decoration="none" font-family="微软雅黑" text-anchor="middle" font-size="14" x="48.0" y="31.85">采集嫌疑人的</text><text id="ProcessOnText1145" fill="#000000" font-weight="bold" font-style="normal" text-decoration="none" font-family="微软雅黑" text-anchor="middle" font-size="14" x="48.0" y="49.35">入区视频，生</text><text id="ProcessOnText1146" fill="#000000" font-weight="bold" font-style="normal" text-decoration="none" font-family="微软雅黑" text-anchor="middle" font-size="14" x="48.0" y="66.85">成文件反馈给w</text><text id="ProcessOnText1147" fill="#000000" font-weight="bold" font-style="normal" text-decoration="none" font-family="微软雅黑" text-anchor="middle" font-size="14" x="48.0" y="84.35">eb系统</text></g></g><g id="ProcessOnG1148"><path id="ProcessOnPath1149" d="M318.0 492.0L318.0 561.5L318.0 561.5L318.0 615.7639320225002" stroke="#323232" stroke-width="2.0" stroke-dasharray="none" fill="none" marker-end="url(#ProcessOnMarker1150)"/><g id="ProcessOnG1152" transform="matrix(1.0,0.0,0.0,1.0,318.0,545.7569660112501)"><path id="ProcessOnPath1153" d="M0 0H52.0V16.25H0Z" fill="#fff" transform="matrix(1.0,0.0,0.0,1.0,-26.0,0.0)"/><text id="ProcessOnText1154" fill="#000000" font-weight="normal" font-style="normal" text-decoration="none" font-family="微软雅黑" text-anchor="middle" font-size="13" x="0.0" y="13.325">录播指令</text></g></g><g id="ProcessOnG1155"><path id="ProcessOnPath1156" d="M318.0 631.0L318.0 561.5L318.0 561.5L318.0 507.2360679774998" stroke="#323232" stroke-width="2.0" stroke-dasharray="none" fill="none" marker-end="url(#ProcessOnMarker1157)"/></g><g id="ProcessOnG1159" transform="matrix(1.0,0.0,0.0,1.0,1080.1666564941406,418.5)" opacity="1.0"><path id="ProcessOnPath1160" d="M0.0 0.0L75.0 0.0L75.0 75.0L0.0 75.0Z" stroke="#323232" stroke-width="0.0" stroke-dasharray="none" opacity="1.0" fill="url(#ProcessOnPattern1161)"/><g id="ProcessOnG1162" transform="matrix(1.0,0.0,0.0,1.0,-20.0,81.875)"><text id="ProcessOnText1163" fill="#000000" font-weight="normal" font-style="normal" text-decoration="none" font-family="微软雅黑" text-anchor="middle" font-size="13" x="56.5" y="13.325">嫌疑绑定RFID手环</text></g></g><g id="ProcessOnG1164"><path id="ProcessOnPath1165" d="M1080.1666564941406 456.0L1027.9166564941406 456.0L1027.9166564941406 238.0L990.9027244716405 238.0" stroke="#323232" stroke-width="2.0" stroke-dasharray="none" fill="none" marker-end="url(#ProcessOnMarker1166)"/></g><g id="ProcessOnG1168"><path id="ProcessOnPath1169" d="M1080.1666564941406 456.0L1027.9166564941406 456.0L1027.9166564941406 359.3333320617676L990.9027244716405 359.3333320617676" stroke="#323232" stroke-width="2.0" stroke-dasharray="none" fill="none" marker-end="url(#ProcessOnMarker1170)"/><g id="ProcessOnG1172" transform="matrix(1.0,0.0,0.0,1.0,1027.9166564941406,407.1597000196337)"><path id="ProcessOnPath1173" d="M0 0H78.0V16.25H0Z" fill="#fff" transform="matrix(1.0,0.0,0.0,1.0,-39.0,0.0)"/><text id="ProcessOnText1174" fill="#000000" font-weight="bold" font-style="normal" text-decoration="none" font-family="微软雅黑" text-anchor="middle" font-size="13" x="0.0" y="13.325">采集手环信息</text></g></g><g id="ProcessOnG1175"><path id="ProcessOnPath1176" d="M1080.1666564941406 456.0L1027.9166564941406 456.0L1027.9166564941406 532.0L990.9027244716405 532.0" stroke="#323232" stroke-width="2.0" stroke-dasharray="none" fill="none" marker-end="url(#ProcessOnMarker1177)"/></g><g id="ProcessOnG1179"><path id="ProcessOnPath1180" d="M1080.1666564941406 456.0L1027.9166564941406 456.0L1027.9166564941406 674.6666717529297L990.9027244716405 674.6666717529297" stroke="#323232" stroke-width="2.0" stroke-dasharray="none" fill="none" marker-end="url(#ProcessOnMarker1181)"/><g id="ProcessOnG1183" transform="matrix(1.0,0.0,0.0,1.0,1027.9166564941406,549.590301887715)"><path id="ProcessOnPath1184" d="M0 0H78.0V16.25H0Z" fill="#fff" transform="matrix(1.0,0.0,0.0,1.0,-39.0,0.0)"/><text id="ProcessOnText1185" fill="#000000" font-weight="bold" font-style="normal" text-decoration="none" font-family="微软雅黑" text-anchor="middle" font-size="13" x="0.0" y="13.325">采集手环信息</text></g></g><g id="ProcessOnG1186" transform="matrix(1.0,0.0,0.0,1.0,82.66665649414062,83.0)" opacity="1.0"><path id="ProcessOnPath1187" d="M0.0 0.0L370.0 0.0L370.0 116.0L0.0 116.0Z" stroke="#323232" stroke-width="0.0" stroke-dasharray="none" opacity="1.0" fill="none"/><g id="ProcessOnG1188" transform="matrix(1.0,0.0,0.0,1.0,0.0,33.0)"><text id="ProcessOnText1189" fill="#000000" font-weight="bold" font-style="normal" text-decoration="none" font-family="微软雅黑" text-anchor="middle" font-size="40" x="184.0" y="41.0">智慧警务系统</text></g></g><g id="ProcessOnG1190"><path id="ProcessOnPath1191" d="M492.5 468.5L589.0 468.5L589.0 504.7639320225002" stroke="#323232" stroke-width="2.0" stroke-dasharray="none" fill="none" marker-end="url(#ProcessOnMarker1192)"/></g><g id="ProcessOnG1194"><path id="ProcessOnPath1195" d="M492.5 468.5L589.0 468.5L589.0 400.2360679774998" stroke="#323232" stroke-width="2.0" stroke-dasharray="none" fill="none" marker-end="url(#ProcessOnMarker1196)"/><g id="ProcessOnG1198" transform="matrix(1.0,0.0,0.0,1.0,574.8819660112501,460.375)"><path id="ProcessOnPath1199" d="M0 0H104.0V16.25H0Z" fill="#fff" transform="matrix(1.0,0.0,0.0,1.0,-52.0,0.0)"/><text id="ProcessOnText1200" fill="#000000" font-weight="bold" font-style="normal" text-decoration="none" font-family="微软雅黑" text-anchor="middle" font-size="13" x="0.0" y="13.325">入区音频信号输出</text></g></g><g id="ProcessOnG1201"><path id="ProcessOnPath1202" d="M492.5 468.5L589.0 468.5L589.0 265.2360679774998" stroke="#323232" stroke-width="2.0" stroke-dasharray="none" fill="none" marker-end="url(#ProcessOnMarker1203)"/></g><g id="ProcessOnG1205"><path id="ProcessOnPath1206" d="M492.5 468.5L589.0 468.5L589.0 602.7639320225002" stroke="#323232" stroke-width="2.0" stroke-dasharray="none" fill="none" marker-end="url(#ProcessOnMarker1207)"/></g><g id="ProcessOnG1209" transform="matrix(1.0,0.0,0.0,1.0,711.0,445.0)" opacity="1.0"><path id="ProcessOnPath1210" d="M0.0 0.0L80.0 0.0L80.0 74.0L0.0 74.0Z" stroke="#323232" stroke-width="0.0" stroke-dasharray="none" opacity="1.0" fill="url(#ProcessOnPattern1211)"/><g id="ProcessOnG1212" transform="matrix(1.0,0.0,0.0,1.0,-20.0,80.875)"><text id="ProcessOnText1213" fill="#000000" font-weight="bold" font-style="normal" text-decoration="none" font-family="微软雅黑" text-anchor="middle" font-size="13" x="59.0" y="13.325">显示web操作页面</text></g></g><g id="ProcessOnG1214" transform="matrix(1.0,0.0,0.0,1.0,551.5,707.0)" opacity="1.0"><path id="ProcessOnPath1215" d="M0.0 0.0L75.0 0.0L75.0 75.0L0.0 75.0Z" stroke="#323232" stroke-width="0.0" stroke-dasharray="none" opacity="1.0" fill="url(#ProcessOnPattern1216)"/><g id="ProcessOnG1217" transform="matrix(1.0,0.0,0.0,1.0,-20.0,65.625)"><text id="ProcessOnText1218" fill="#000000" font-weight="bold" font-style="normal" text-decoration="none" font-family="微软雅黑" text-anchor="middle" font-size="13" x="56.5" y="13.325">树莓派脚本，采集</text><text id="ProcessOnText1219" fill="#000000" font-weight="bold" font-style="normal" text-decoration="none" font-family="微软雅黑" text-anchor="middle" font-size="13" x="56.5" y="29.575">手环信息，播放音</text><text id="ProcessOnText1220" fill="#000000" font-weight="bold" font-style="normal" text-decoration="none" font-family="微软雅黑" text-anchor="middle" font-size="13" x="56.5" y="45.825">频信号</text></g></g><g id="ProcessOnG1221"><path id="ProcessOnPath1222" d="M589.0 642.0L589.0 674.5L589.0 674.5L589.0 691.7639320225002" stroke="#323232" stroke-width="2.0" stroke-dasharray="none" fill="none" marker-end="url(#ProcessOnMarker1223)"/></g><g id="ProcessOnG1225"><path id="ProcessOnPath1226" d="M627.0 532.0L657.0 532.0L657.0 744.5L641.7360679774998 744.5" stroke="#323232" stroke-width="2.0" stroke-dasharray="none" fill="none" marker-end="url(#ProcessOnMarker1227)"/></g><g id="ProcessOnG1229"><path id="ProcessOnPath1230" d="M551.0 373.0L521.0 373.0L521.0 744.5L536.2639320225002 744.5" stroke="#323232" stroke-width="2.0" stroke-dasharray="none" fill="none" marker-end="url(#ProcessOnMarker1231)"/></g><g id="ProcessOnG1233"><path id="ProcessOnPath1234" d="M627.0 238.0L657.0 238.0L657.0 744.5L641.7360679774998 744.5" stroke="#323232" stroke-width="2.0" stroke-dasharray="none" fill="none" marker-end="url(#ProcessOnMarker1235)"/></g></g></g></svg>